<?xml version="1.0" encoding="iso-8859-1"?>
<!-- Generator: Adobe Illustrator 19.0.0, SVG Export Plug-In . SVG Version: 6.00 Build 0)  -->
<svg version="1.1" id="Layer_1" xmlns="http://www.w3.org/2000/svg" xmlns:xlink="http://www.w3.org/1999/xlink" x="0px" y="0px"
	 viewBox="0 0 512 512" style="enable-background:new 0 0 512 512;" xml:space="preserve">
<path style="fill:#E4F1FB;" d="M421.647,512L421.647,512c0-66.534-53.936-120.471-120.471-120.471h-90.353
	c-66.534,0-120.471,53.936-120.471,120.471l0,0H421.647z"/>
<path style="fill:#C9E3F7;" d="M256,512h165.647c0-66.534-53.936-120.471-120.471-120.471H256V512z"/>
<path style="fill:#FFD6A0;" d="M308.706,395.294C308.706,424.403,285.109,448,256,448l0,0c-29.109,0-52.706-23.597-52.706-52.706
	v-26.353c0-29.109,23.597-52.706,52.706-52.706l0,0c29.109,0,52.706,23.597,52.706,52.706V395.294z"/>
<path style="fill:#D80027;" d="M421.647,376.471V240.941c0-91.485-74.163-165.647-165.647-165.647S90.353,149.456,90.353,240.941
	v135.529H421.647z"/>
<path style="fill:#A2001D;" d="M421.647,376.471V240.941c0-91.485-74.163-165.647-165.647-165.647c0,88.344,0,301.176,0,301.176
	H421.647z"/>
<path style="fill:#FFD6A0;" d="M391.529,266.895c0,74.851-60.678,135.529-135.529,135.529l0,0
	c-74.851,0-135.529-60.68-135.529-135.529l0,0c0-74.851,60.678-135.529,135.529-135.529l0,0
	C330.851,131.366,391.529,192.044,391.529,266.895L391.529,266.895z"/>
<path style="fill:#FFC170;" d="M256,131.366L256,131.366c74.851,0,135.529,60.678,135.529,135.529l0,0
	c0,74.851-60.678,135.529-135.529,135.529l0,0"/>
<path style="fill:#D80027;" d="M378.933,240.941c-7.011-84.984-36.801-151.77-123.594-151.77S97.364,155.957,90.353,240.941H378.933
	z"/>
<path style="fill:#A2001D;" d="M419.744,240.941c-7.011-84.984-78.194-151.77-164.986-151.77v151.77H419.744z"/>
<path style="fill:#E4F1FB;" d="M256,0C150.588,0,105.412,60.235,105.412,60.235l45.176,90.353H256h105.412l45.176-90.353
	C406.588,60.235,361.412,0,256,0z"/>
<path style="fill:#C9E3F7;" d="M361.412,150.588l45.176-90.353C406.588,60.235,361.412,0,256,0v150.588H361.412z"/>
<polygon style="fill:#D80027;" points="301.176,57.224 274.071,57.224 274.071,30.118 237.929,30.118 237.929,57.224 
	210.824,57.224 210.824,93.365 237.929,93.365 237.929,120.471 274.071,120.471 274.071,93.365 301.176,93.365 "/>
<g>
</g>
<g>
</g>
<g>
</g>
<g>
</g>
<g>
</g>
<g>
</g>
<g>
</g>
<g>
</g>
<g>
</g>
<g>
</g>
<g>
</g>
<g>
</g>
<g>
</g>
<g>
</g>
<g>
</g>
</svg>
