<?xml version="1.0" encoding="UTF-8" standalone="no"?>
<!-- Created with Inkscape (http://www.inkscape.org/) -->

<svg
   xmlns:dc="http://purl.org/dc/elements/1.1/"
   xmlns:cc="http://creativecommons.org/ns#"
   xmlns:rdf="http://www.w3.org/1999/02/22-rdf-syntax-ns#"
   xmlns:svg="http://www.w3.org/2000/svg"
   xmlns="http://www.w3.org/2000/svg"
   xmlns:sodipodi="http://sodipodi.sourceforge.net/DTD/sodipodi-0.dtd"
   xmlns:inkscape="http://www.inkscape.org/namespaces/inkscape"
   width="217.7142mm"
   height="166.40944mm"
   viewBox="0 0 217.71421 166.40944"
   version="1.1"
   id="svg8"
   inkscape:export-filename="C:\Users\juanf\Documents\source\repos\Chased-Home-UI-Design\ChasedHomeUIDesign.Android\Resources\drawable\validateUsers.png"
   inkscape:export-xdpi="96"
   inkscape:export-ydpi="96"
   inkscape:version="0.92.4 (5da689c313, 2019-01-14)"
   sodipodi:docname="ProofCertificate.svg">
  <defs
     id="defs2">
    <linearGradient
       id="linearGradient2250">
      <stop
         id="stop2252"
         offset="0"
         style="stop-color:#008700;stop-opacity:1" />
      <stop
         id="stop2254"
         offset="1"
         style="stop-color:#006f00;stop-opacity:1" />
    </linearGradient>
  </defs>
  <sodipodi:namedview
     id="base"
     pagecolor="#ffffff"
     bordercolor="#666666"
     borderopacity="1.0"
     inkscape:pageopacity="0.0"
     inkscape:pageshadow="2"
     inkscape:zoom="0.35"
     inkscape:cx="-59.394129"
     inkscape:cy="-400.3818"
     inkscape:document-units="mm"
     inkscape:current-layer="layer1"
     showgrid="false"
     fit-margin-top="0"
     fit-margin-left="0"
     fit-margin-right="0"
     fit-margin-bottom="0"
     inkscape:window-width="1920"
     inkscape:window-height="1017"
     inkscape:window-x="-8"
     inkscape:window-y="-8"
     inkscape:window-maximized="1" />
  <metadata
     id="metadata5">
    <rdf:RDF>
      <cc:Work
         rdf:about="">
        <dc:format>image/svg+xml</dc:format>
        <dc:type
           rdf:resource="http://purl.org/dc/dcmitype/StillImage" />
        <dc:title></dc:title>
      </cc:Work>
    </rdf:RDF>
  </metadata>
  <g
     inkscape:label="Layer 1"
     inkscape:groupmode="layer"
     id="layer1"
     transform="translate(208.04721,123.51046)">
    <rect
       id="rect3962"
       width="41.577332"
       height="0"
       x="-361.0332"
       y="43.907784"
       ry="0"
       style="stroke-width:0.26458332" />
    <rect
       id="rect3960-0"
       width="217.7142"
       height="164.79762"
       x="-208.04721"
       y="-122.75452"
       style="fill:#80e5ff;stroke-width:0.27027392"
       ry="20.410713"
       inkscape:export-xdpi="96"
       inkscape:export-ydpi="96" />
    <g
       id="g4052"
       transform="matrix(0.33506016,0,0,0.3232484,-189.0288,-123.51046)">
      <path
         id="path3999"
         d="m 320,268 v 156 l -32,-16 -32,16 V 268 Z m 0,0"
         inkscape:connector-curvature="0"
         style="fill:#cfd8dc" />
      <path
         id="path4001"
         d="m 256,268 v 100 l -32,-16 -32,16 V 268 Z m 0,0"
         inkscape:connector-curvature="0"
         style="fill:#b0bec5" />
      <path
         id="path4003"
         d="m 120,176 v -8 C 120,137.07031 94.929688,112 64,112 33.070312,112 8,137.07031 8,168 v 64 c 0,30.92969 25.070312,56 56,56 30.929688,0 56,-25.07031 56,-56 v -8 h 264 v 72 h 40 v -72 h 40 v 88 h 40 V 176 Z m -40,56 c 0,8.83594 -7.164062,16 -16,16 -8.835938,0 -16,-7.16406 -16,-16 v -64 c 0,-8.83594 7.164062,-16 16,-16 8.835938,0 16,7.16406 16,16 z m 0,0"
         inkscape:connector-curvature="0"
         style="fill:#ffe082" />
      <path
         id="path4005"
         d="M 239.12109,291.40625 C 233.78516,284.25781 224.52734,281.23437 216,283.85547 h -0.0391 c -6.35157,1.96875 -13.26172,0.82422 -18.64063,-3.08203 -5.3789,-3.91016 -8.60156,-10.125 -8.69531,-16.77344 v -0.0625 c -0.13281,-8.92187 -5.85938,-16.80078 -14.30469,-19.67187 -6.29687,-2.14063 -11.21484,-7.1211 -13.27344,-13.44141 -2.05859,-6.32422 -1.01562,-13.24609 2.81641,-18.67969 5.13281,-7.28515 5.13281,-17.01172 0,-24.29687 -3.82812,-5.4375 -4.86719,-12.35938 -2.80859,-18.67969 2.05859,-6.32031 6.97656,-11.30078 13.27343,-13.44141 8.44532,-2.87109 14.17579,-10.75 14.30469,-19.67187 V 136 c 0.0977,-6.64062 3.3125,-12.84766 8.6836,-16.75391 5.37109,-3.90625 12.26562,-5.05468 18.61328,-3.10156 h 0.0391 c 8.51172,2.6211 17.75,-0.39062 23.08594,-7.51953 3.98437,-5.32031 10.23828,-8.44922 16.88281,-8.44922 6.64062,0 12.89844,3.12891 16.87891,8.44922 5.33593,7.12891 14.57421,10.14063 23.08593,7.51953 h 0.043 c 6.36328,-2.0039 13.30078,-0.8789 18.70703,3.03125 5.40235,3.91406 8.64063,10.15235 8.72266,16.82422 v 0.0625 c 0.13281,8.92188 5.85937,16.80078 14.30469,19.67188 6.29687,2.14062 11.21484,7.12109 13.27343,13.4414 2.0586,6.32422 1.01563,13.2461 -2.8164,18.67969 -5.13281,7.28516 -5.13281,17.01172 0,24.29687 3.82422,5.4375 4.86328,12.35938 2.80469,18.67579 -2.0586,6.32031 -6.97657,11.30078 -13.26954,13.44531 -8.44921,2.86719 -14.17968,10.74219 -14.30468,19.66406 V 264 c -0.0977,6.64063 -3.3125,12.84766 -8.6836,16.75391 -5.37109,3.90625 -12.26562,5.05468 -18.61328,3.10156 H 296 c -8.51172,-2.61719 -17.74609,0.39062 -23.08984,7.51172 -3.98047,5.32031 -10.23438,8.44922 -16.87891,8.44922 -6.64063,0 -12.89844,-3.12891 -16.87891,-8.44922 z m 0,0"
         inkscape:connector-curvature="0"
         style="fill:#ff8a65" />
      <path
         id="path4007"
         d="m 312,200 c 0,30.92969 -25.07031,56 -56,56 -30.92969,0 -56,-25.07031 -56,-56 0,-30.92969 25.07031,-56 56,-56 30.92969,0 56,25.07031 56,56 z m 0,0"
         inkscape:connector-curvature="0"
         style="fill:#ffe082" />
      <path
         id="path4009"
         d="m 248,227.3125 -21.65625,-21.65625 11.3125,-11.3125 L 248,204.6875 l 26.34375,-26.34375 11.3125,11.3125 z m 0,0"
         inkscape:connector-curvature="0"
         style="fill:#ffffff" />
      <path
         id="path4011"
         d="m 64,144 c -13.253906,0 -24,10.74609 -24,24 v 64 c 0,13.25391 10.746094,24 24,24 13.253906,0 24,-10.74609 24,-24 V 168 C 88,154.74609 77.253906,144 64,144 Z m 8,88 c 0,4.41797 -3.582031,8 -8,8 -4.417969,0 -8,-3.58203 -8,-8 v -64 c 0,-4.41797 3.582031,-8 8,-8 4.417969,0 8,3.58203 8,8 z m 0,0"
         inkscape:connector-curvature="0" />
      <path
         id="path4013"
         d="m 358.55859,166.67187 c -2.79687,-8.74609 -9.60156,-15.6289 -18.3125,-18.53515 -5.26562,-1.78906 -8.82422,-6.71094 -8.87109,-12.27344 -0.13281,-9.17187 -4.58594,-17.74219 -12.01172,-23.1289 -7.42578,-5.38672 -16.95703,-6.95313 -25.71484,-4.23047 -5.3125,1.65234 -11.08985,-0.23828 -14.40235,-4.71094 -5.49218,-7.347658 -14.125,-11.671876 -23.29687,-11.671876 -9.17188,0 -17.80859,4.324218 -23.30078,11.671876 -3.32813,4.44922 -9.10156,6.3125 -14.40235,4.64844 -8.76171,-2.69532 -18.28515,-1.10547 -25.69531,4.29687 -7.40625,5.40235 -11.83594,13.98047 -11.94922,23.14844 -0.0742,5.53906 -3.6289,10.42969 -8.875,12.21094 -8.70703,2.90625 -15.51172,9.78906 -18.3125,18.53515 -0.14062,0.4375 -0.14843,0.88672 -0.26953,1.32813 H 128 C 127.98828,132.61328 99.328125,103.96875 63.980469,103.98047 28.632812,103.99219 -0.0117188,132.65234 0,168 v 64 c 0,35.34766 28.652344,64 64,64 35.347656,0 64,-28.65234 64,-64 h 25.16797 c 0.12109,0.44141 0.12891,0.88672 0.27344,1.32812 2.79687,8.7461 9.60156,15.62891 18.3125,18.53516 5.26562,1.78906 8.82422,6.71875 8.87109,12.28125 0.0625,4.60156 1.21875,9.11719 3.375,13.18359 v 103.61719 l 40,-20 24,12 v 64 l 40,-20 40,20 v -159.625 c 2.16016,-4.08594 3.31641,-8.6289 3.375,-13.25 0.082,-5.53515 3.63281,-10.42187 8.87109,-12.20703 8.71094,-2.90625 15.51563,-9.78906 18.3125,-18.53516 0.14454,-0.4414 0.15235,-0.88671 0.27344,-1.32812 H 376 v 72 h 56 v -72 h 24 v 88 h 56 V 168 H 358.83203 c -0.12109,-0.44141 -0.1289,-0.88672 -0.27344,-1.32813 z m -201.23828,40.89454 c -1.7539,2.58203 -3.08203,5.42968 -3.92968,8.43359 H 112 v 16 c 0,26.50781 -21.492188,48 -48,48 -26.507812,0 -48,-21.49219 -48,-48 v -64 c 0,-26.50781 21.492188,-48 48,-48 26.507812,0 48,21.49219 48,48 v 16 h 41.39063 c 0.85156,3.01562 2.18359,5.875 3.94531,8.46484 3.19922,4.52344 3.19922,10.57813 0,15.10157 z M 248,355.05469 l -24,-12 -24,12 v -64 c 5.90234,2.14843 12.34375,2.3164 18.35156,0.48828 2.57813,-0.79688 5.33985,-0.77735 7.90625,0.0586 2.57813,0.85156 4.83203,2.47266 6.46094,4.64453 3.81641,5.04688 9.1875,8.69532 15.28125,10.38672 z m 64,56 -24,-12 -24,12 V 306.63281 c 6.11719,-1.70703 11.50391,-5.38672 15.32031,-10.46484 3.32422,-4.44922 9.10156,-6.3125 14.39844,-4.64844 5.98828,1.82422 12.40625,1.64453 18.28125,-0.5039 z m 29.60156,-194.25391 c 2.375,3.375 3.01953,7.67188 1.74219,11.59375 -1.27734,3.92578 -4.32422,7.01953 -8.23047,8.34766 -11.67969,3.96875 -19.58984,14.86718 -19.73828,27.20312 -0.0703,4.1211 -2.07813,7.96485 -5.41797,10.37891 -3.33984,2.41406 -7.62109,3.11328 -11.55859,1.88281 -11.75391,-3.61719 -24.51563,0.54688 -31.87891,10.40234 -2.55859,3.16407 -6.41016,5 -10.48047,5 -4.0664,0 -7.91797,-1.83593 -10.48047,-5 v -0.0508 c -5.49218,-7.32031 -14.10937,-11.63672 -23.26172,-11.64843 -2.9375,0.004 -5.85937,0.44531 -8.66406,1.3125 -3.94922,1.21484 -8.23828,0.49609 -11.57422,-1.94141 -3.33593,-2.44141 -5.32422,-6.30859 -5.36328,-10.44141 -0.16797,-12.3125 -8.07422,-23.17968 -19.73437,-27.1289 -3.92578,-1.32813 -6.98828,-4.42969 -8.26563,-8.3711 -1.27344,-3.9414 -0.60937,-8.2539 1.79297,-11.6289 7.09375,-10.05469 7.09375,-23.48828 0,-33.54297 -2.375,-3.375 -3.01953,-7.66797 -1.74219,-11.58984 1.27735,-3.92188 4.33203,-7.01172 8.23828,-8.33985 11.67579,-3.96875 19.57813,-14.86719 19.72657,-27.19922 0.0547,-4.13672 2.0664,-8.0039 5.42187,-10.42578 3.35547,-2.42578 7.65625,-3.11719 11.60156,-1.87109 11.75782,3.62109 24.51563,-0.54297 31.875,-10.39844 2.5586,-3.17578 6.42188,-5.01562 10.50391,-5.00781 4.07813,0.0117 7.93359,1.87109 10.48047,5.05469 7.38672,9.85937 20.17969,14 31.94141,10.33593 3.94921,-1.21093 8.23828,-0.48828 11.57421,1.95313 3.33204,2.4375 5.31641,6.30859 5.35547,10.4414 0.17969,12.30469 8.08203,23.16797 19.73438,27.125 3.91015,1.33204 6.96484,4.42579 8.23828,8.35547 1.27344,3.92969 0.62109,8.22657 -1.76563,11.59766 -7.09375,10.05469 -7.09375,23.48437 0,33.53516 z M 496,304 h -24 v -88 h -56 v 72 h -24 v -72 h -33.39063 c -0.85156,-3.01563 -2.18359,-5.875 -3.94531,-8.46484 -3.19922,-4.52344 -3.19922,-10.57032 0,-15.09375 1.76172,-2.58204 3.09375,-5.4336 3.94531,-8.44141 H 496 Z m 0,0"
         inkscape:connector-curvature="0" />
      <path
         id="path4015"
         d="m 256,136 c -35.34766,0 -64,28.65234 -64,64 0,35.34766 28.65234,64 64,64 35.34766,0 64,-28.65234 64,-64 -0.0391,-35.32813 -28.67188,-63.96094 -64,-64 z m 0,112 c -26.50781,0 -48,-21.49219 -48,-48 0,-26.50781 21.49219,-48 48,-48 26.50781,0 48,21.49219 48,48 -0.0273,26.5 -21.5,47.97266 -48,48 z m 0,0"
         inkscape:connector-curvature="0" />
      <path
         id="path4017"
         d="m 496,0 h 16 v 128 h -16 z m 0,0"
         inkscape:connector-curvature="0" />
      <path
         id="path4019"
         d="m 464,0 h 16 v 96 h -16 z m 0,0"
         inkscape:connector-curvature="0" />
      <path
         id="path4021"
         d="m 432,0 h 16 v 64 h -16 z m 0,0"
         inkscape:connector-curvature="0" />
      <path
         id="path4023"
         d="M 0,384 H 16 V 512 H 0 Z m 0,0"
         inkscape:connector-curvature="0" />
      <path
         id="path4025"
         d="m 32,416 h 16 v 96 H 32 Z m 0,0"
         inkscape:connector-curvature="0" />
      <path
         id="path4027"
         d="m 64,448 h 16 v 64 H 64 Z m 0,0"
         inkscape:connector-curvature="0" />
    </g>
    <path
       id="check-4"
       style="fill:#00bb00;fill-opacity:1;fill-rule:evenodd;stroke:#000000;stroke-width:0.27580595;stroke-linecap:butt;stroke-linejoin:miter;stroke-miterlimit:4;stroke-dasharray:none;stroke-opacity:1"
       d="m -79.129068,17.731412 c 0,0 15.98331,17.77056 19.17997,25.02966 h 13.74563 c 5.754,-17.35871 28.1306,-58.80022 47.3105605,-73.31842 3.97389,-5.04449 -6.00912,-7.12675 -14.0653005,-3.78735 -12.14185,5.03296 -35.04174,43.4602403 -39.31891,52.70733 -6.07365,1.57807 -12.46698,-10.0996097 -12.46698,-10.0996097 z"
       inkscape:connector-curvature="0" />
  </g>
</svg>
