<svg height="512pt" viewBox="0 0 512 512" width="512pt" xmlns="http://www.w3.org/2000/svg"><path d="m320 268v156l-32-16-32 16v-156zm0 0" fill="#cfd8dc"/><path d="m256 268v100l-32-16-32 16v-100zm0 0" fill="#b0bec5"/><path d="m120 176v-8c0-30.929688-25.070312-56-56-56s-56 25.070312-56 56v64c0 30.929688 25.070312 56 56 56s56-25.070312 56-56v-8h264v72h40v-72h40v88h40v-136zm-40 56c0 8.835938-7.164062 16-16 16s-16-7.164062-16-16v-64c0-8.835938 7.164062-16 16-16s16 7.164062 16 16zm0 0" fill="#ffe082"/><path d="m239.121094 291.40625c-5.335938-7.148438-14.59375-10.171875-23.121094-7.550781h-.039062c-6.351563 1.96875-13.261719.824219-18.640626-3.082031-5.378906-3.910157-8.601562-10.125-8.695312-16.773438v-.0625c-.132812-8.921875-5.859375-16.800781-14.304688-19.671875-6.296874-2.140625-11.214843-7.121094-13.273437-13.441406-2.058594-6.324219-1.015625-13.246094 2.816406-18.679688 5.132813-7.285156 5.132813-17.011719 0-24.296875-3.828125-5.4375-4.867187-12.359375-2.808593-18.679687 2.058593-6.320313 6.976562-11.300781 13.273437-13.441407 8.445313-2.871093 14.175781-10.75 14.304687-19.671874v-.054688c.097657-6.640625 3.3125-12.847656 8.683594-16.753906s12.265625-5.054688 18.613282-3.101563h.039062c8.511719 2.621094 17.75-.390625 23.085938-7.519531 3.984374-5.320312 10.238281-8.449219 16.882812-8.449219 6.640625 0 12.898438 3.128907 16.878906 8.449219 5.335938 7.128906 14.574219 10.140625 23.085938 7.519531h.042968c6.363282-2.003906 13.300782-.878906 18.707032 3.03125 5.402344 3.914063 8.640625 10.152344 8.722656 16.824219v.0625c.132812 8.921875 5.859375 16.800781 14.304688 19.671875 6.296874 2.140625 11.214843 7.121094 13.273437 13.441406 2.058594 6.324219 1.015625 13.246094-2.816406 18.679688-5.132813 7.285156-5.132813 17.011719 0 24.296875 3.824219 5.4375 4.863281 12.359375 2.804687 18.675781-2.058594 6.320313-6.976562 11.300781-13.269531 13.445313-8.449219 2.867187-14.179687 10.742187-14.304687 19.664062v.0625c-.097657 6.640625-3.3125 12.847656-8.683594 16.753906s-12.265625 5.054688-18.613282 3.101563h-.070312c-8.511719-2.617188-17.746094.390625-23.089844 7.511719-3.980468 5.320312-10.234375 8.449218-16.878906 8.449218-6.640625 0-12.898438-3.128906-16.878906-8.449218zm0 0" fill="#ff8a65"/><path d="m312 200c0 30.929688-25.070312 56-56 56s-56-25.070312-56-56 25.070312-56 56-56 56 25.070312 56 56zm0 0" fill="#ffe082"/><path d="m248 227.3125-21.65625-21.65625 11.3125-11.3125 10.34375 10.34375 26.34375-26.34375 11.3125 11.3125zm0 0" fill="#fff"/><path d="m64 144c-13.253906 0-24 10.746094-24 24v64c0 13.253906 10.746094 24 24 24s24-10.746094 24-24v-64c0-13.253906-10.746094-24-24-24zm8 88c0 4.417969-3.582031 8-8 8s-8-3.582031-8-8v-64c0-4.417969 3.582031-8 8-8s8 3.582031 8 8zm0 0"/><path d="m358.558594 166.671875c-2.796875-8.746094-9.601563-15.628906-18.3125-18.535156-5.265625-1.789063-8.824219-6.710938-8.871094-12.273438-.132812-9.171875-4.585938-17.742187-12.011719-23.128906s-16.957031-6.953125-25.714843-4.230469c-5.3125 1.652344-11.089844-.238281-14.402344-4.710937-5.492188-7.347657-14.125-11.671875-23.296875-11.671875s-17.808594 4.324218-23.300781 11.671875c-3.328126 4.449219-9.101563 6.3125-14.402344 4.648437-8.761719-2.695312-18.285156-1.105468-25.695313 4.296875-7.40625 5.402344-11.835937 13.980469-11.949219 23.148438-.074218 5.539062-3.628906 10.429687-8.875 12.210937-8.707031 2.90625-15.511718 9.789063-18.3125 18.535156-.140624.4375-.148437.886719-.269531 1.328126h-25.144531c-.011719-35.347657-28.671875-63.992188-64.019531-63.980469-35.347657.011719-63.9921878 28.671875-63.980469 64.019531v64c0 35.347656 28.652344 64 64 64s64-28.652344 64-64h25.167969c.121093.441406.128906.886719.273437 1.328125 2.796875 8.746094 9.601563 15.628906 18.3125 18.535156 5.265625 1.789063 8.824219 6.71875 8.871094 12.28125.0625 4.601563 1.21875 9.117188 3.375 13.183594v103.617187l40-20 24 12v64l40-20 40 20v-159.625c2.160156-4.085937 3.316406-8.628906 3.375-13.25.082031-5.535156 3.632812-10.421874 8.871094-12.207031 8.710937-2.90625 15.515625-9.789062 18.3125-18.535156.144531-.441406.152344-.886719.273437-1.328125h17.167969v72h56v-72h24v88h56v-152h-153.167969c-.121093-.441406-.128906-.886719-.273437-1.328125zm-201.238282 40.894531c-1.753906 2.582032-3.082031 5.429688-3.929687 8.433594h-41.390625v16c0 26.507812-21.492188 48-48 48s-48-21.492188-48-48v-64c0-26.507812 21.492188-48 48-48s48 21.492188 48 48v16h41.390625c.851563 3.015625 2.183594 5.875 3.945313 8.464844 3.199218 4.523437 3.199218 10.578125 0 15.101562zm90.679688 147.488282-24-12-24 12v-64c5.902344 2.148437 12.34375 2.316406 18.351562.488281 2.578126-.796875 5.339844-.777344 7.90625.058593 2.578126.851563 4.832032 2.472657 6.460938 4.644532 3.816406 5.046875 9.1875 8.695312 15.28125 10.386718zm64 56-24-12-24 12v-104.421876c6.117188-1.707031 11.503906-5.386718 15.320312-10.464843 3.324219-4.449219 9.101563-6.3125 14.398438-4.648438 5.988281 1.824219 12.40625 1.644531 18.28125-.503906zm29.601562-194.253907c2.375 3.375 3.019532 7.671875 1.742188 11.59375-1.277344 3.925781-4.324219 7.019531-8.230469 8.347657-11.679687 3.96875-19.589843 14.867187-19.738281 27.203124-.070312 4.121094-2.078125 7.964844-5.417969 10.378907-3.339843 2.414062-7.621093 3.113281-11.558593 1.882812-11.753907-3.617187-24.515626.546875-31.878907 10.402344-2.558593 3.164063-6.410156 5-10.480469 5-4.066406 0-7.917968-1.835937-10.480468-5v-.050781c-5.492188-7.320313-14.109375-11.636719-23.261719-11.648438-2.9375.003906-5.859375.445313-8.664063 1.3125-3.949218 1.214844-8.238281.496094-11.574218-1.941406-3.335938-2.441406-5.324219-6.308594-5.363282-10.441406-.167968-12.3125-8.074218-23.179688-19.734374-27.128906-3.925782-1.328126-6.988282-4.429688-8.265626-8.371094-1.273437-3.941406-.609374-8.253906 1.792969-11.628906 7.09375-10.054688 7.09375-23.488282 0-33.542969-2.375-3.375-3.019531-7.667969-1.742187-11.589844s4.332031-7.011719 8.238281-8.339844c11.675781-3.96875 19.578125-14.867187 19.726563-27.199219.054687-4.136718 2.066406-8.003906 5.421874-10.425781 3.355469-2.425781 7.65625-3.117187 11.601563-1.871093 11.757813 3.621093 24.515625-.542969 31.875-10.398438 2.558594-3.175781 6.421875-5.015625 10.503906-5.007812 4.078125.011718 7.933594 1.871093 10.480469 5.054687 7.386719 9.859375 20.179688 14 31.941406 10.335937 3.949219-1.210937 8.238282-.488281 11.574219 1.953126 3.332031 2.4375 5.316406 6.308593 5.355469 10.441406.179687 12.304687 8.082031 23.167968 19.734375 27.125 3.910156 1.332031 6.964843 4.425781 8.238281 8.355468 1.273438 3.929688.621094 8.226563-1.765625 11.597657-7.09375 10.054687-7.09375 23.484375 0 33.535156zm154.398438 87.199219h-24v-88h-56v72h-24v-72h-33.390625c-.851563-3.015625-2.183594-5.875-3.945313-8.464844-3.199218-4.523437-3.199218-10.570312 0-15.09375 1.761719-2.582031 3.09375-5.433594 3.945313-8.441406h137.390625zm0 0"/><path d="m256 136c-35.347656 0-64 28.652344-64 64s28.652344 64 64 64 64-28.652344 64-64c-.039062-35.328125-28.671875-63.960938-64-64zm0 112c-26.507812 0-48-21.492188-48-48s21.492188-48 48-48 48 21.492188 48 48c-.027344 26.5-21.5 47.972656-48 48zm0 0"/><path d="m496 0h16v128h-16zm0 0"/><path d="m464 0h16v96h-16zm0 0"/><path d="m432 0h16v64h-16zm0 0"/><path d="m0 384h16v128h-16zm0 0"/><path d="m32 416h16v96h-16zm0 0"/><path d="m64 448h16v64h-16zm0 0"/></svg>