<?xml version="1.0" encoding="UTF-8" standalone="no"?>
<!-- Created with Inkscape (http://www.inkscape.org/) -->

<svg
   xmlns:dc="http://purl.org/dc/elements/1.1/"
   xmlns:cc="http://creativecommons.org/ns#"
   xmlns:rdf="http://www.w3.org/1999/02/22-rdf-syntax-ns#"
   xmlns:svg="http://www.w3.org/2000/svg"
   xmlns="http://www.w3.org/2000/svg"
   xmlns:sodipodi="http://sodipodi.sourceforge.net/DTD/sodipodi-0.dtd"
   xmlns:inkscape="http://www.inkscape.org/namespaces/inkscape"
   width="217.7142mm"
   height="166.40944mm"
   viewBox="0 0 217.71421 166.40944"
   version="1.1"
   id="svg8"
   inkscape:export-filename="C:\Users\juanf\Documents\source\repos\Chased-Home-UI-Design\ChasedHomeUIDesign.Android\Resources\drawable\testAdminArea.png"
   inkscape:export-xdpi="96"
   inkscape:export-ydpi="96"
   inkscape:version="0.92.4 (5da689c313, 2019-01-14)"
   sodipodi:docname="TestAdminArea.svg">
  <defs
     id="defs2">
    <linearGradient
       id="linearGradient2250">
      <stop
         id="stop2252"
         offset="0"
         style="stop-color:#008700;stop-opacity:1" />
      <stop
         id="stop2254"
         offset="1"
         style="stop-color:#006f00;stop-opacity:1" />
    </linearGradient>
  </defs>
  <sodipodi:namedview
     id="base"
     pagecolor="#ffffff"
     bordercolor="#666666"
     borderopacity="1.0"
     inkscape:pageopacity="0.0"
     inkscape:pageshadow="2"
     inkscape:zoom="0.35"
     inkscape:cx="-162.25127"
     inkscape:cy="-398.95323"
     inkscape:document-units="mm"
     inkscape:current-layer="layer1"
     showgrid="false"
     fit-margin-top="0"
     fit-margin-left="0"
     fit-margin-right="0"
     fit-margin-bottom="0"
     inkscape:window-width="1920"
     inkscape:window-height="1017"
     inkscape:window-x="-8"
     inkscape:window-y="-8"
     inkscape:window-maximized="1" />
  <metadata
     id="metadata5">
    <rdf:RDF>
      <cc:Work
         rdf:about="">
        <dc:format>image/svg+xml</dc:format>
        <dc:type
           rdf:resource="http://purl.org/dc/dcmitype/StillImage" />
        <dc:title></dc:title>
      </cc:Work>
    </rdf:RDF>
  </metadata>
  <g
     inkscape:label="Layer 1"
     inkscape:groupmode="layer"
     id="layer1"
     transform="translate(208.04721,123.51046)">
    <rect
       id="rect3962"
       width="41.577332"
       height="0"
       x="-361.0332"
       y="43.907784"
       ry="0"
       style="stroke-width:0.26458332" />
    <rect
       id="rect3960-0"
       width="217.7142"
       height="164.79762"
       x="-208.04723"
       y="-122.75451"
       style="fill:#93ac93;stroke-width:0.27027392"
       ry="20.410713"
       inkscape:export-xdpi="96"
       inkscape:export-ydpi="96"
       inkscape:export-filename="C:\Users\juanf\Documents\source\repos\Chased-Home-UI-Design\ChasedHomeUIDesign.Android\Resources\drawable\provideProof.png" />
    <g
       id="g4624"
       transform="matrix(0.34421369,0,0,0.36325371,-156.07226,-108.66596)"
       inkscape:transform-center-x="204.56129"
       inkscape:transform-center-y="228.33093"
       inkscape:export-filename="C:\Users\juanf\Documents\source\repos\Chased-Home-UI-Design\ChasedHomeUIDesign.Android\Resources\drawable\g4624.png"
       inkscape:export-xdpi="96"
       inkscape:export-ydpi="96">
      <g
         id="g4532">
	<g
   id="g4526">
		<g
   id="g4460">
			<path
   id="path4458"
   d="m 269.575,12.724 -46.062,250.052 32.902,6.58 c 69.641,-50.997 99.526,-256.632 13.16,-256.632 z"
   style="fill:#80362d"
   inkscape:connector-curvature="0" />

		</g>

		<g
   id="g4464">
			<path
   id="path4462"
   d="m 269.575,12.724 c -11.516,-6.992 -72.293,-24.749 -118.446,0 -56.755,30.434 -106.382,139.283 -26.321,250.052 0.114,0.157 59.223,-6.58 59.223,-6.58 z"
   style="fill:#80362d"
   inkscape:connector-curvature="0" />

		</g>

		<g
   id="g4468">
			<path
   id="path4466"
   d="m 256.772,232.084 h -0.358 v -15.37 H 164.29 v 15.354 c 0,15.042 -0.063,31.392 -13.161,41.282 v 147.354 h 59.223 c 0,0 31.011,0 59.223,0 V 273.12 c -12.763,-9.915 -12.803,-26.123 -12.803,-41.036 z"
   style="fill:#ffd7a3"
   inkscape:connector-curvature="0" />

		</g>

		<g
   id="g4472">
			<path
   id="path4470"
   d="m 210.352,354.9 c -14.15,0 -27.502,-1.876 -39.482,-5.134 v 70.937 h 92.124 v -75.279 c -14.928,5.957 -33.053,9.476 -52.642,9.476 z"
   style="fill:#545465"
   inkscape:connector-curvature="0" />

		</g>

		<g
   id="g4476">
			<path
   id="path4474"
   d="m 262.994,302.258 c 2.401,0.655 4.563,1.004 6.58,1.174 V 273.12 c -12.762,-9.915 -12.803,-26.124 -12.803,-41.037 l -0.009,-0.382 v -15.37 l -72.732,0.382 -19.741,6.58 c 13.161,14.807 53.466,66.627 98.705,78.965 z"
   style="fill:#fdc88e"
   inkscape:connector-curvature="0" />

		</g>

		<g
   id="g4480">
			<path
   id="path4478"
   d="m 302.476,131.169 c 0,52.696 -52.408,118.446 -92.124,118.446 -39.716,0 -92.124,-65.75 -92.124,-118.446 0,-52.696 41.246,-72.384 92.124,-72.384 50.878,0 92.124,19.688 92.124,72.384 z"
   style="fill:#ffe1b2"
   inkscape:connector-curvature="0" />

		</g>

		<g
   id="g4484">
			<path
   id="path4482"
   d="m 223.512,25.884 c -3.697,0 -15.701,4.154 -25.512,7.794 l -0.809,-1.214 c 0,0 -1.354,1.064 -3.698,2.908 -5.457,2.072 -9.462,3.672 -9.462,3.672 l 1.539,2.566 c -24.976,19.678 -81.96,64.693 -87.084,69.818 -6.58,6.58 39.482,174.464 39.482,78.964 0,-79.786 44.327,-95.587 85.544,-105.285 18.644,-4.387 24.128,-15.354 26.321,-26.321 2.194,-10.967 -19.74,-32.902 -26.321,-32.902 z"
   style="fill:#80362d"
   inkscape:connector-curvature="0" />

		</g>

		<g
   id="g4488">
			<path
   id="path4486"
   d="m 243.253,65.366 c 12.064,43.32 36.192,62.924 58.812,68.682 12.395,3.155 6.992,-35.78 6.992,-35.78 0,0 -17.548,-44.966 -19.741,-46.062 -2.193,-1.097 -19.741,-39.482 -19.741,-39.482 l -39.482,32.902 z"
   style="fill:#80362d"
   inkscape:connector-curvature="0" />

		</g>

		<g
   id="g4492">
			<path
   id="path4490"
   d="m 158.355,265.465 c -6.163,10.013 -18.728,17.052 -44.514,17.052 h -2.193 c -39.976,0 -72.384,32.407 -72.384,72.384 v 46.062 c 0,10.902 8.838,19.741 19.741,19.741 h 135.028 z"
   style="fill:#e4ebf0"
   inkscape:connector-curvature="0" />

		</g>

		<g
   id="g4496">
			<path
   id="path4494"
   d="m 262.349,265.465 c 6.163,10.013 18.728,17.052 44.514,17.052 h 2.193 c 39.976,0 72.384,32.407 72.384,72.384 v 46.062 c 0,10.902 -8.838,19.741 -19.741,19.741 H 226.671 Z"
   style="fill:#e4ebf0"
   inkscape:connector-curvature="0" />

		</g>

		<g
   id="g4500">
			<circle
   id="circle4498"
   r="19.740999"
   cy="387.802"
   cx="111.647"
   style="fill:#d0d7dc" />

		</g>

		<g
   id="g4504">
			<path
   id="path4502"
   d="m 333.783,410.338 -8.135,-5.591 c 7.229,-10.518 11.376,-26.288 11.376,-43.267 0,-29.427 -12.807,-54.288 -27.966,-54.288 -15.159,0 -27.966,24.861 -27.966,54.288 0,16.979 4.146,32.749 11.376,43.267 l -8.135,5.591 c -8.331,-12.123 -13.111,-29.931 -13.111,-48.858 0,-35.977 16.619,-64.158 37.837,-64.158 21.217,0 37.837,28.182 37.837,64.158 -0.003,18.927 -4.782,36.735 -13.113,48.858 z"
   style="fill:#d0d7dc"
   inkscape:connector-curvature="0" />

		</g>

		<g
   id="g4508">
			<circle
   id="circle4506"
   r="6.5799999"
   cy="407.543"
   cx="289.31601"
   style="fill:#545465" />

		</g>

		<g
   id="g4512">
			<circle
   id="circle4510"
   r="6.5799999"
   cy="407.543"
   cx="328.798"
   style="fill:#545465" />

		</g>

		<g
   id="g4516">
			<path
   id="path4514"
   d="m 111.647,379.577 c -2.726,0 -4.935,-2.209 -4.935,-4.935 0,-85.274 40.304,-108.646 42.02,-109.599 2.387,-1.329 5.388,-0.466 6.71,1.917 1.321,2.374 0.472,5.367 -1.892,6.698 -0.484,0.28 -36.968,22.172 -36.968,100.984 0,2.726 -2.209,4.935 -4.935,4.935 z"
   style="fill:#d0d7dc"
   inkscape:connector-curvature="0" />

		</g>

		<g
   id="g4520">
			<circle
   id="circle4518"
   r="10.419"
   cy="387.802"
   cx="111.647"
   style="fill:#b2b9bf" />

		</g>

		<g
   id="g4524">
			<path
   id="path4522"
   d="m 309.057,307.195 c -2.034,0 -3.938,-1.268 -4.654,-3.295 -4.288,-12.15 -11.268,-17.291 -11.337,-17.339 -2.233,-1.563 -2.776,-4.641 -1.213,-6.874 1.563,-2.23 4.636,-2.774 6.874,-1.213 0.389,0.273 9.585,6.842 14.984,22.143 0.908,2.569 -0.442,5.388 -3.012,6.296 -0.544,0.19 -1.098,0.282 -1.642,0.282 z"
   style="fill:#d0d7dc"
   inkscape:connector-curvature="0" />

		</g>

	</g>

	<g
   id="g4530">
		<path
   id="path4528"
   d="m 292.676,131.771 c 10.767,-2.468 17.821,2.805 17.821,13.161 0,13.709 -14.479,47.296 -29.701,26.321 -15.222,-20.975 11.88,-39.482 11.88,-39.482 z"
   style="fill:#ffe1b2"
   inkscape:connector-curvature="0" />

	</g>

</g>
      <g
         id="g4534">
</g>
      <g
         id="g4536">
</g>
      <g
         id="g4538">
</g>
      <g
         id="g4540">
</g>
      <g
         id="g4542">
</g>
      <g
         id="g4544">
</g>
      <g
         id="g4546">
</g>
      <g
         id="g4548">
</g>
      <g
         id="g4550">
</g>
      <g
         id="g4552">
</g>
      <g
         id="g4554">
</g>
      <g
         id="g4556">
</g>
      <g
         id="g4558">
</g>
      <g
         id="g4560">
</g>
      <g
         id="g4562">
</g>
    </g>
    <g
       id="g4369"
       transform="matrix(0.27142875,0,0,0.30444801,-220.92962,-112.77593)">
      <path
         id="path4281"
         d="m 421.647,512 v 0 c 0,-66.534 -53.936,-120.471 -120.471,-120.471 H 210.823 C 144.289,391.529 90.352,445.465 90.352,512 v 0 z"
         style="fill:#e4f1fb"
         inkscape:connector-curvature="0" />
      <path
         id="path4283"
         d="m 256,512 h 165.647 c 0,-66.534 -53.936,-120.471 -120.471,-120.471 H 256 Z"
         style="fill:#c9e3f7"
         inkscape:connector-curvature="0" />
      <path
         id="path4285"
         d="M 308.706,395.294 C 308.706,424.403 285.109,448 256,448 v 0 c -29.109,0 -52.706,-23.597 -52.706,-52.706 v -26.353 c 0,-29.109 23.597,-52.706 52.706,-52.706 v 0 c 29.109,0 52.706,23.597 52.706,52.706 z"
         style="fill:#ffd6a0"
         inkscape:connector-curvature="0" />
      <path
         id="path4287"
         d="M 421.647,376.471 V 240.941 C 421.647,149.456 347.484,75.294 256,75.294 164.516,75.294 90.353,149.456 90.353,240.941 V 376.47 h 331.294 z"
         style="fill:#d80027"
         inkscape:connector-curvature="0" />
      <path
         id="path4289"
         d="M 421.647,376.471 V 240.941 C 421.647,149.456 347.484,75.294 256,75.294 c 0,88.344 0,301.176 0,301.176 h 165.647 z"
         style="fill:#a2001d"
         inkscape:connector-curvature="0" />
      <path
         id="path4291"
         d="m 391.529,266.895 c 0,74.851 -60.678,135.529 -135.529,135.529 v 0 c -74.851,0 -135.529,-60.68 -135.529,-135.529 v 0 c 0,-74.851 60.678,-135.529 135.529,-135.529 v 0 c 74.851,0 135.529,60.678 135.529,135.529 z"
         style="fill:#ffd6a0"
         inkscape:connector-curvature="0" />
      <path
         id="path4293"
         d="m 256,131.366 v 0 c 74.851,0 135.529,60.678 135.529,135.529 v 0 c 0,74.851 -60.678,135.529 -135.529,135.529 v 0"
         style="fill:#ffc170"
         inkscape:connector-curvature="0" />
      <path
         id="path4295"
         d="m 378.933,240.941 c -7.011,-84.984 -36.801,-151.77 -123.594,-151.77 -86.793,0 -157.975,66.786 -164.986,151.77 z"
         style="fill:#d80027"
         inkscape:connector-curvature="0" />
      <path
         id="path4297"
         d="M 419.744,240.941 C 412.733,155.957 341.55,89.171 254.758,89.171 v 151.77 z"
         style="fill:#a2001d"
         inkscape:connector-curvature="0" />
      <path
         id="path4299"
         d="M 256,0 C 150.588,0 105.412,60.235 105.412,60.235 l 45.176,90.353 H 256 361.412 L 406.588,60.235 C 406.588,60.235 361.412,0 256,0 Z"
         style="fill:#e4f1fb"
         inkscape:connector-curvature="0" />
      <path
         id="path4301"
         d="M 361.412,150.588 406.588,60.235 C 406.588,60.235 361.412,0 256,0 v 150.588 z"
         style="fill:#c9e3f7"
         inkscape:connector-curvature="0" />
      <polygon
         id="polygon4303"
         points="237.929,30.118 237.929,57.224 210.824,57.224 210.824,93.365 237.929,93.365 237.929,120.471 274.071,120.471 274.071,93.365 301.176,93.365 301.176,57.224 274.071,57.224 274.071,30.118 "
         style="fill:#d80027" />
      <g
         id="g4305">
</g>
      <g
         id="g4307">
</g>
      <g
         id="g4309">
</g>
      <g
         id="g4311">
</g>
      <g
         id="g4313">
</g>
      <g
         id="g4315">
</g>
      <g
         id="g4317">
</g>
      <g
         id="g4319">
</g>
      <g
         id="g4321">
</g>
      <g
         id="g4323">
</g>
      <g
         id="g4325">
</g>
      <g
         id="g4327">
</g>
      <g
         id="g4329">
</g>
      <g
         id="g4331">
</g>
      <g
         id="g4333">
</g>
    </g>
    <g
       id="g4391"
       transform="matrix(0.16393784,0,0,0.18722828,-396.71921,-81.909957)">
	
	<rect
   x="2275.8809"
   y="353.71039"
   style="fill:#ffdaaa"
   width="25"
   height="40"
   id="rect4373" />

	<path
   inkscape:connector-curvature="0"
   style="fill:#00eed1"
   d="m 2430.8812,353.70942 v 212.54 c 0,24.81 -20.19,45 -45,45 v 40 c 46.87,0 85,-38.13 85,-85 v -340 h -85 v 127.46 z"
   id="path4375" />

	<path
   inkscape:connector-curvature="0"
   style="fill:#00969b"
   d="m 2430.8812,566.24942 v -212.54 h -45 v 257.54 c 24.81,0 45,-20.19 45,-45 z"
   id="path4377" />

	<path
   inkscape:connector-curvature="0"
   style="fill:#aafff5"
   d="m 2300.8812,566.24942 c 0,46.87 38.13,85 85,85 v -40 c -24.81,0 -45,-20.19 -45,-45 v -212.54 h 45 v -127.46 h -85 z"
   id="path4379" />

	<path
   inkscape:connector-curvature="0"
   style="fill:#00b6bd"
   d="m 2340.8812,353.70942 v 212.54 c 0,24.81 20.19,45 45,45 v -257.54 z"
   id="path4381" />

	<path
   inkscape:connector-curvature="0"
   style="fill:#00eed1"
   d="m 2235.8812,353.70942 v 212.54 c 0,24.81 -20.19,45 -45,45 v 40 c 46.87,0 85,-38.13 85,-85 v -340 h -85 v 127.46 z"
   id="path4383" />

	<path
   inkscape:connector-curvature="0"
   style="fill:#00969b"
   d="m 2235.8812,566.24942 v -212.54 h -45 v 257.54 c 24.81,0 45,-20.19 45,-45 z"
   id="path4385" />

	<path
   inkscape:connector-curvature="0"
   style="fill:#aafff5"
   d="m 2105.8812,566.24942 c 0,46.87 38.13,85 85,85 v -40 c -24.81,0 -45,-20.19 -45,-45 v -212.54 h 45 v -127.46 h -85 z"
   id="path4387" />

	<path
   inkscape:connector-curvature="0"
   style="fill:#00b6bd"
   d="m 2145.8812,353.70942 v 212.54 c 0,24.81 20.19,45 45,45 v -257.54 z"
   id="path4389" />

</g>
    <g
       id="g4393"
       transform="matrix(0.16393784,0,0,0.18722828,-396.71921,-81.909957)">
</g>
    <g
       id="g4395"
       transform="matrix(0.16393784,0,0,0.18722828,-396.71921,-81.909957)">
</g>
    <g
       id="g4397"
       transform="matrix(0.16393784,0,0,0.18722828,-396.71921,-81.909957)">
</g>
    <g
       id="g4399"
       transform="matrix(0.16393784,0,0,0.18722828,-396.71921,-81.909957)">
</g>
    <g
       id="g4401"
       transform="matrix(0.16393784,0,0,0.18722828,-396.71921,-81.909957)">
</g>
    <g
       id="g4403"
       transform="matrix(0.16393784,0,0,0.18722828,-396.71921,-81.909957)">
</g>
    <g
       id="g4405"
       transform="matrix(0.16393784,0,0,0.18722828,-396.71921,-81.909957)">
</g>
    <g
       id="g4407"
       transform="matrix(0.16393784,0,0,0.18722828,-396.71921,-81.909957)">
</g>
    <g
       id="g4409"
       transform="matrix(0.16393784,0,0,0.18722828,-396.71921,-81.909957)">
</g>
    <g
       id="g4411"
       transform="matrix(0.16393784,0,0,0.18722828,-396.71921,-81.909957)">
</g>
    <g
       id="g4413"
       transform="matrix(0.16393784,0,0,0.18722828,-396.71921,-81.909957)">
</g>
    <g
       id="g4415"
       transform="matrix(0.16393784,0,0,0.18722828,-396.71921,-81.909957)">
</g>
    <g
       id="g4417"
       transform="matrix(0.16393784,0,0,0.18722828,-396.71921,-81.909957)">
</g>
    <g
       id="g4419"
       transform="matrix(0.16393784,0,0,0.18722828,-396.71921,-81.909957)">
</g>
    <g
       id="g4421"
       transform="matrix(0.16393784,0,0,0.18722828,-396.71921,-81.909957)">
</g>
  </g>
</svg>
