<?xml version="1.0" encoding="UTF-8" standalone="no"?>
<!-- Created with Inkscape (http://www.inkscape.org/) -->

<svg
   xmlns:dc="http://purl.org/dc/elements/1.1/"
   xmlns:cc="http://creativecommons.org/ns#"
   xmlns:rdf="http://www.w3.org/1999/02/22-rdf-syntax-ns#"
   xmlns:svg="http://www.w3.org/2000/svg"
   xmlns="http://www.w3.org/2000/svg"
   xmlns:sodipodi="http://sodipodi.sourceforge.net/DTD/sodipodi-0.dtd"
   xmlns:inkscape="http://www.inkscape.org/namespaces/inkscape"
   width="217.7142mm"
   height="164.79764mm"
   viewBox="0 0 217.71421 164.79764"
   version="1.1"
   id="svg8"
   inkscape:export-filename="C:\Users\juanf\Documents\source\repos\Chased-Home-UI-Design\ChasedHomeUIDesign.Android\Resources\drawable\userIdentity.png"
   inkscape:export-xdpi="96"
   inkscape:export-ydpi="96"
   inkscape:version="0.92.4 (5da689c313, 2019-01-14)"
   sodipodi:docname="UserIdentity.svg">
  <defs
     id="defs2">
    <linearGradient
       id="linearGradient2250">
      <stop
         id="stop2252"
         offset="0"
         style="stop-color:#008700;stop-opacity:1" />
      <stop
         id="stop2254"
         offset="1"
         style="stop-color:#006f00;stop-opacity:1" />
    </linearGradient>
  </defs>
  <sodipodi:namedview
     id="base"
     pagecolor="#ffffff"
     bordercolor="#666666"
     borderopacity="1.0"
     inkscape:pageopacity="0.0"
     inkscape:pageshadow="2"
     inkscape:zoom="0.35"
     inkscape:cx="467.46217"
     inkscape:cy="395.81193"
     inkscape:document-units="mm"
     inkscape:current-layer="layer1"
     showgrid="false"
     fit-margin-top="0"
     fit-margin-left="0"
     fit-margin-right="0"
     fit-margin-bottom="0"
     inkscape:window-width="1920"
     inkscape:window-height="1017"
     inkscape:window-x="-8"
     inkscape:window-y="-8"
     inkscape:window-maximized="1" />
  <metadata
     id="metadata5">
    <rdf:RDF>
      <cc:Work
         rdf:about="">
        <dc:format>image/svg+xml</dc:format>
        <dc:type
           rdf:resource="http://purl.org/dc/dcmitype/StillImage" />
        <dc:title></dc:title>
      </cc:Work>
    </rdf:RDF>
  </metadata>
  <g
     inkscape:label="Layer 1"
     inkscape:groupmode="layer"
     id="layer1"
     transform="translate(206.45949,123.28368)">
    <rect
       id="rect3962"
       width="41.577332"
       height="0"
       x="-361.0332"
       y="43.907784"
       ry="0"
       style="stroke-width:0.26458332" />
    <g
       id="g4393"
       transform="matrix(0.16393784,0,0,0.18722828,-396.71921,-81.909957)">
</g>
    <g
       id="g4395"
       transform="matrix(0.16393784,0,0,0.18722828,-396.71921,-81.909957)">
</g>
    <g
       id="g4397"
       transform="matrix(0.16393784,0,0,0.18722828,-396.71921,-81.909957)">
</g>
    <g
       id="g4399"
       transform="matrix(0.16393784,0,0,0.18722828,-396.71921,-81.909957)">
</g>
    <g
       id="g4401"
       transform="matrix(0.16393784,0,0,0.18722828,-396.71921,-81.909957)">
</g>
    <g
       id="g4403"
       transform="matrix(0.16393784,0,0,0.18722828,-396.71921,-81.909957)">
</g>
    <g
       id="g4405"
       transform="matrix(0.16393784,0,0,0.18722828,-396.71921,-81.909957)">
</g>
    <g
       id="g4407"
       transform="matrix(0.16393784,0,0,0.18722828,-396.71921,-81.909957)">
</g>
    <g
       id="g4409"
       transform="matrix(0.16393784,0,0,0.18722828,-396.71921,-81.909957)">
</g>
    <g
       id="g4411"
       transform="matrix(0.16393784,0,0,0.18722828,-396.71921,-81.909957)">
</g>
    <g
       id="g4413"
       transform="matrix(0.16393784,0,0,0.18722828,-396.71921,-81.909957)">
</g>
    <g
       id="g4415"
       transform="matrix(0.16393784,0,0,0.18722828,-396.71921,-81.909957)">
</g>
    <g
       id="g4417"
       transform="matrix(0.16393784,0,0,0.18722828,-396.71921,-81.909957)">
</g>
    <g
       id="g4419"
       transform="matrix(0.16393784,0,0,0.18722828,-396.71921,-81.909957)">
</g>
    <g
       id="g4421"
       transform="matrix(0.16393784,0,0,0.18722828,-396.71921,-81.909957)">
</g>
    <g
       id="g4803">
      <rect
         inkscape:export-filename="C:\Users\juanf\Documents\source\repos\Chased-Home-UI-Design\ChasedHomeUIDesign.Android\Resources\drawable\provideProof.png"
         inkscape:export-ydpi="96"
         inkscape:export-xdpi="96"
         ry="20.410713"
         style="fill:#8080ff;stroke-width:0.27027392"
         y="-123.28368"
         x="-206.45949"
         height="164.79762"
         width="217.7142"
         id="rect3960-0" />
      <g
         transform="matrix(2.9816646,0,0,2.7343277,-206.43201,-117.93837)"
         id="user_female"
         data-name="user female">
        <path
           style="fill:#634738"
           inkscape:connector-curvature="0"
           d="M 34.807,3.7 C 27.653,-1.952 17.452,4.583 16.54,19.887 l 0.069,0.024 a 38.069,38.069 0 0 0 1.08,12.442 c 0.016,0.061 0.034,0.119 0.053,0.182 a 16.963,16.963 0 0 0 0.633,1.78 7.837,7.837 0 0 0 1.361,2.292 3.738,3.738 0 0 0 0.762,0.64 4.276,4.276 0 0 0 2.34,0.591 h 13.88 a 4.336,4.336 0 0 0 2.263,-0.543 3.685,3.685 0 0 0 0.84,-0.688 7.814,7.814 0 0 0 1.36,-2.292 16.736,16.736 0 0 0 0.634,-1.78 c 0.019,-0.063 0.036,-0.121 0.053,-0.189 a 28.485,28.485 0 0 0 0.795,-3.838 C 44.923,14.024 41.831,4.239 34.807,3.7 Z"
           id="path4666" />
        <path
           style="fill:#f4cc90"
           inkscape:connector-curvature="0"
           d="m 30,16.436 c 2.937,0 5.392,9.413 5.392,16.25 0,6.837 -2.381,12.38 -5.318,12.38 -2.937,0 -5.318,-5.543 -5.318,-12.38 0,-6.837 2.304,-16.25 5.244,-16.25 z"
           id="path4668" />
        <polygon
           style="fill:#f4cc90"
           points="24.842,34.955 35.299,34.955 37.899,36.084 35.304,51.865 23.173,51.865 22.1,36.084 "
           id="polygon4670" />
        <path
           style="fill:#ffd997"
           inkscape:connector-curvature="0"
           d="m 23.211,21.164 c 0.349,1.741 -0.251,3.329 -1.339,3.549 -1.088,0.22 -2.255,-1.017 -2.6,-2.758 -0.345,-1.741 0.25,-3.331 1.338,-3.55 1.088,-0.219 2.251,1.016 2.601,2.759 z"
           id="path4672" />
        <path
           style="fill:#ffd997"
           inkscape:connector-curvature="0"
           d="m 36.947,21.164 c -0.351,1.741 0.249,3.329 1.338,3.549 1.089,0.22 2.255,-1.013 2.605,-2.758 0.35,-1.745 -0.251,-3.331 -1.339,-3.55 -1.088,-0.219 -2.251,1.016 -2.604,2.759 z"
           id="path4674" />
        <path
           style="fill:#ffd997"
           inkscape:connector-curvature="0"
           d="m 30,35.157 c -4.755,0 -9.829,-5.754 -9.829,-12.853 a 14.8,14.8 0 0 1 0.435,-3.532 c 0.372,-1.293 2.15,-2.907 2.357,-4.2 0.879,-5.493 4.047,-11.54 12.09,-2.051 a 8.839,8.839 0 0 1 3.258,3.262 14.812,14.812 0 0 1 1.516,6.517 c 0,7.1 -5.074,12.857 -9.827,12.857 z"
           id="path4676" />
        <path
           style="fill:#ff897f"
           inkscape:connector-curvature="0"
           d="M 30,41.735 A 10.37,10.37 0 0 1 21.374,37.374 H 19.912 V 55.719 H 38.946 V 37.374 h -0.32 A 10.366,10.366 0 0 1 30,41.735 Z"
           id="path4678" />
        <path
           style="fill:#ee5450"
           inkscape:connector-curvature="0"
           d="m 55.04,58.31 a 139.407,139.407 0 0 0 -4.312,-14 C 48.422,38.451 37.9,36.084 37.9,36.084 A 49.177,49.177 0 0 1 30,53.41 49.19,49.19 0 0 1 22.1,36.084 c 0,0 -10.523,2.367 -12.827,8.231 a 138.934,138.934 0 0 0 -4.313,14 z"
           id="path4680" />
        <path
           style="fill:#634738;fill-rule:evenodd"
           inkscape:connector-curvature="0"
           d="M 38.769,20.87 C 41.6,11.689 33.425,6.425 28.435,6.425 c -5.622,0 -10.235,8.744 -9.287,14.615 3,-1.366 5.64,-4.065 12.2,-8.465 -0.953,1.291 -2.811,3.641 -9.13,7.9 3.4,0.424 9.734,-2.814 13.109,-6.2 a 18.723,18.723 0 0 0 3.442,6.595 z"
           id="path4682" />
      </g>
      <g
         transform="matrix(0.30591809,0,0,0.42346424,-91.684576,-67.475996)"
         id="g4769">
        <g
           id="g4710">
	<path
   inkscape:connector-curvature="0"
   style="fill:#ffd155"
   d="m 307.478,147.449 h -0.6 v -15.113 c 0,-5.293 -4.291,-9.584 -9.585,-9.584 -5.293,0 -9.584,4.291 -9.584,9.584 v 15.113 H 268.54 v -25.763 c 0,-5.293 -4.291,-9.584 -9.585,-9.584 -5.293,0 -9.584,4.291 -9.584,9.584 v 25.763 h -19.169 v -15.113 c 0,-5.293 -4.291,-9.584 -9.585,-9.584 -5.293,0 -9.584,4.291 -9.584,9.584 v 15.113 h -51.848 c -8.84,-32.88 -38.843,-57.09 -74.515,-57.09 -42.62,0 -77.17,34.55 -77.17,77.17 0,42.62 34.55,77.17 77.17,77.17 35.672,0 65.675,-24.209 74.515,-57.09 h 148.293 c 11.09,0 20.08,-8.99 20.08,-20.081 0.001,-11.089 -8.99,-20.079 -20.08,-20.079 z M 57.565,186.696 c -10.585,0 -19.166,-8.581 -19.166,-19.166 0,-10.585 8.581,-19.166 19.166,-19.166 10.585,0 19.167,8.581 19.167,19.166 0,10.585 -8.582,19.166 -19.167,19.166 z"
   id="path4702" />

	<g
   id="g4708">
		<path
   inkscape:connector-curvature="0"
   style="fill:#e87e04"
   d="m 57.564,140.863 c -14.704,0 -26.666,11.962 -26.666,26.667 0,14.705 11.962,26.667 26.666,26.667 14.704,0 26.667,-11.962 26.667,-26.667 0,-14.705 -11.962,-26.667 -26.667,-26.667 z m 0,38.333 c -6.433,0 -11.666,-5.233 -11.666,-11.667 0,-6.433 5.233,-11.667 11.666,-11.667 6.434,0 11.667,5.233 11.667,11.667 0,6.433 -5.233,11.667 -11.667,11.667 z"
   id="path4704" />

		<path
   inkscape:connector-curvature="0"
   style="fill:#e87e04"
   d="m 314.378,140.822 v -8.487 c 0,-9.42 -7.664,-17.084 -17.084,-17.084 -9.421,0 -17.085,7.664 -17.085,17.084 v 7.613 h -4.169 v -18.263 c 0,-9.42 -7.664,-17.084 -17.084,-17.084 -9.42,0 -17.084,7.664 -17.084,17.084 v 18.263 h -4.169 v -7.613 c 0,-9.42 -7.664,-17.084 -17.085,-17.084 -9.42,0 -17.084,7.664 -17.084,17.084 v 7.613 H 164.73 C 153.074,106.057 120.945,82.858 84.67,82.858 37.982,82.859 0,120.842 0,167.529 c 0,46.687 37.982,84.67 84.67,84.67 36.274,0 68.403,-23.199 80.06,-57.09 h 142.749 c 15.208,0 27.58,-12.373 27.58,-27.581 0,-12.825 -8.801,-23.634 -20.681,-26.706 z m -6.9,39.288 H 159.186 c -3.393,0 -6.362,2.277 -7.243,5.553 -8.157,30.344 -35.821,51.537 -67.272,51.537 -38.416,0 -69.67,-31.254 -69.67,-69.67 0,-38.416 31.254,-69.67 69.67,-69.67 31.451,0 59.115,21.193 67.272,51.537 0.881,3.276 3.851,5.553 7.243,5.553 h 51.849 c 4.143,0 7.5,-3.358 7.5,-7.5 v -15.113 c 0,-1.149 0.935,-2.084 2.084,-2.084 1.149,0 2.085,0.935 2.085,2.084 v 15.113 c 0,4.142 3.357,7.5 7.5,7.5 h 19.169 c 4.143,0 7.5,-3.358 7.5,-7.5 v -25.763 c 0,-1.149 0.935,-2.084 2.084,-2.084 1.149,0 2.084,0.935 2.084,2.084 v 25.763 c 0,4.142 3.357,7.5 7.5,7.5 h 19.169 c 4.143,0 7.5,-3.358 7.5,-7.5 v -15.113 c 0,-1.149 0.935,-2.084 2.085,-2.084 1.149,0 2.084,0.935 2.084,2.084 v 15.113 c 0,4.142 3.358,7.5 7.5,7.5 h 0.601 c 6.937,0 12.58,5.644 12.58,12.581 0,6.937 -5.645,12.579 -12.582,12.579 z"
   id="path4706" />

	</g>

</g>
        <g
           id="g4712">
</g>
        <g
           id="g4714">
</g>
        <g
           id="g4716">
</g>
        <g
           id="g4718">
</g>
        <g
           id="g4720">
</g>
        <g
           id="g4722">
</g>
        <g
           id="g4724">
</g>
        <g
           id="g4726">
</g>
        <g
           id="g4728">
</g>
        <g
           id="g4730">
</g>
        <g
           id="g4732">
</g>
        <g
           id="g4734">
</g>
        <g
           id="g4736">
</g>
        <g
           id="g4738">
</g>
        <g
           id="g4740">
</g>
      </g>
    </g>
  </g>
</svg>
