<?xml version="1.0" encoding="iso-8859-1"?>
<!-- Generator: Adobe Illustrator 19.0.0, SVG Export Plug-In . SVG Version: 6.00 Build 0)  -->
<svg version="1.1" id="Layer_1" xmlns="http://www.w3.org/2000/svg" xmlns:xlink="http://www.w3.org/1999/xlink" x="0px" y="0px"
	 viewBox="0 0 512 512" style="enable-background:new 0 0 512 512;" xml:space="preserve">
<path style="fill:#940009;" d="M256.001,321.302c-96.908,0-176.934,72.286-189.097,165.88c-0.815,6.276,1.113,12.598,5.292,17.35
	C76.376,509.285,82.401,512,88.728,512h334.544c6.323,0,12.338-2.725,16.514-7.473c4.176-4.748,6.127-11.071,5.312-17.343
	C432.936,393.589,352.91,321.302,256.001,321.302z"/>
<path style="fill:#FF0029;" d="M256.001,321.302c-96.908,0-176.934,72.286-189.097,165.88c-0.815,6.276,1.113,12.598,5.292,17.349
	c4.179,4.753,10.204,7.467,16.532,7.467H256V321.302H256.001z"/>
<path style="fill:#940009;" d="M333.388,350.421c0.143-4.069,1.025-7.975,2.518-11.585c-24.305-11.241-51.365-17.532-79.903-17.532
	c-28.618,0-55.748,6.329-80.104,17.629c1.261,3.526,1.956,7.302,1.956,11.218c0,0.107-0.009,0.212-0.01,0.318
	c3.154,4.363,5.31,9.473,6.11,14.978c19.752,18.842,44.788,30.124,72.048,30.124c27.462,0,52.668-11.452,72.486-30.547
	C328.975,359.737,330.705,354.767,333.388,350.421z"/>
<path style="fill:#FF9800;" d="M174.494,339.559c0.227,44.755,36.697,81.099,81.505,81.099s81.28-36.344,81.505-81.1
	c-10.718-5.075-21.983-9.184-33.685-12.206c0.932,3.78,1.436,7.726,1.436,11.789c0,27.16-22.097,49.257-49.257,49.257
	s-49.257-22.097-49.257-49.257c0-4.063,0.504-8.01,1.436-11.789C196.477,330.374,185.212,334.484,174.494,339.559z"/>
<path style="fill:#FFCA4F;" d="M256.001,388.398L256.001,388.398c-27.161,0-49.257-22.097-49.257-49.257
	c0-4.063,0.504-8.01,1.436-11.789c-11.702,3.022-22.967,7.131-33.685,12.207c0.227,44.755,36.697,81.099,81.505,81.099l0,0v-32.259
	H256.001z"/>
<ellipse style="fill:#FFDBAC;" cx="255.996" cy="226.394" rx="115.535" ry="137.797"/>
<path style="fill:#FFEED9;" d="M256.001,88.593c-63.806,0-115.531,61.697-115.531,137.803c0,76.107,51.725,137.803,115.531,137.803
	V88.593z"/>
<circle style="fill:#FFCA4F;" cx="146.332" cy="241.974" r="21.563"/>
<circle style="fill:#FF9800;" cx="367.828" cy="241.974" r="21.563"/>
<path style="fill:#492E07;" d="M389.073,149.996c-1.866-42.746-19.377-84.235-59.677-95.917c0-0.017,0.001-0.033,0.001-0.049
	C329.397,24.19,299.509,0,262.639,0c-31.303,0-57.563,17.441-64.783,40.97c-9.437,6.229-19.742,14.193-31,24.263
	c-71.327,63.797-34.79,161.575-34.79,161.575s110.624,6.558,152.153-65.186c0,0,38.727,67.493,94.313,66.361
	C378.531,227.981,391.09,196.193,389.073,149.996z"/>
<path style="fill:#5C3A09;" d="M256.001,0.273c-28.325,2.265-51.442,18.852-58.143,40.696c-9.437,6.229-19.742,14.193-31,24.263
	c-71.327,63.797-34.79,161.575-34.79,161.575s74.259,4.392,123.934-33.481L256.001,0.273L256.001,0.273z"/>
<g>
</g>
<g>
</g>
<g>
</g>
<g>
</g>
<g>
</g>
<g>
</g>
<g>
</g>
<g>
</g>
<g>
</g>
<g>
</g>
<g>
</g>
<g>
</g>
<g>
</g>
<g>
</g>
<g>
</g>
</svg>
