<?xml version="1.0" encoding="UTF-8" standalone="no"?>
<!-- Created with Inkscape (http://www.inkscape.org/) -->

<svg
   xmlns:dc="http://purl.org/dc/elements/1.1/"
   xmlns:cc="http://creativecommons.org/ns#"
   xmlns:rdf="http://www.w3.org/1999/02/22-rdf-syntax-ns#"
   xmlns:svg="http://www.w3.org/2000/svg"
   xmlns="http://www.w3.org/2000/svg"
   xmlns:sodipodi="http://sodipodi.sourceforge.net/DTD/sodipodi-0.dtd"
   xmlns:inkscape="http://www.inkscape.org/namespaces/inkscape"
   width="217.7142mm"
   height="164.79762mm"
   viewBox="0 0 217.71421 164.79762"
   version="1.1"
   id="svg8"
   inkscape:export-filename="C:\Users\juanf\Documents\source\repos\Chased-Home-UI-Design\ChasedHomeUIDesign.Android\Resources\drawable\validateUsers.png"
   inkscape:export-xdpi="96"
   inkscape:export-ydpi="96"
   inkscape:version="0.92.4 (5da689c313, 2019-01-14)"
   sodipodi:docname="ValidateUsers.svg">
  <defs
     id="defs2">
    <linearGradient
       id="linearGradient2250">
      <stop
         id="stop2252"
         offset="0"
         style="stop-color:#008700;stop-opacity:1" />
      <stop
         id="stop2254"
         offset="1"
         style="stop-color:#006f00;stop-opacity:1" />
    </linearGradient>
  </defs>
  <sodipodi:namedview
     id="base"
     pagecolor="#ffffff"
     bordercolor="#666666"
     borderopacity="1.0"
     inkscape:pageopacity="0.0"
     inkscape:pageshadow="2"
     inkscape:zoom="0.35"
     inkscape:cx="1024.5348"
     inkscape:cy="229.14533"
     inkscape:document-units="mm"
     inkscape:current-layer="layer1"
     showgrid="false"
     fit-margin-top="0"
     fit-margin-left="0"
     fit-margin-right="0"
     fit-margin-bottom="0"
     inkscape:window-width="1920"
     inkscape:window-height="1017"
     inkscape:window-x="-8"
     inkscape:window-y="-8"
     inkscape:window-maximized="1" />
  <metadata
     id="metadata5">
    <rdf:RDF>
      <cc:Work
         rdf:about="">
        <dc:format>image/svg+xml</dc:format>
        <dc:type
           rdf:resource="http://purl.org/dc/dcmitype/StillImage" />
        <dc:title></dc:title>
      </cc:Work>
    </rdf:RDF>
  </metadata>
  <g
     inkscape:label="Layer 1"
     inkscape:groupmode="layer"
     id="layer1"
     transform="translate(494.83673,-44.663738)">
    <rect
       id="rect3960"
       width="217.7142"
       height="164.79762"
       x="-494.83673"
       y="44.663738"
       style="fill:#ff8080;stroke-width:0.27027392"
       ry="20.410713"
       inkscape:export-xdpi="96"
       inkscape:export-ydpi="96" />
    <rect
       id="rect3962"
       width="41.577332"
       height="0"
       x="-361.0332"
       y="43.907784"
       ry="0"
       style="stroke-width:0.26458332" />
    <g
       id="g3958"
       transform="translate(-468.01007,58.327603)"
       inkscape:export-xdpi="96"
       inkscape:export-ydpi="96">
      <g
         transform="matrix(2.1669538,0,0,2.3668266,36.210518,1.0063136)"
         id="user_male"
         data-name="user male">
        <path
           style="fill:#ee5450"
           inkscape:connector-curvature="0"
           d="m 55.825,43.736 c -0.858,-7.135 -6,-8.563 -6,-8.563 L 37.554,30.891 c -2.857,2.569 -7.707,2 -7.707,2 0,0 -4.548,0.57 -7.4,-2 l -12.276,4.282 c 0,0 -5.138,1.427 -5.995,8.563 l -3.14,14.273 h 57.928 z"
           id="path3831" />
        <path
           style="fill:#ff897f"
           inkscape:connector-curvature="0"
           d="m 22.44,30.891 c 0,0 -0.949,5.372 7.582,9.54 0,0 -6.385,0.508 -8.213,6.446 C 21.68,47.132 18.2,34.05 22.44,30.891 Z"
           id="path3833" />
        <path
           style="fill:#ff897f"
           inkscape:connector-curvature="0"
           d="m 37.609,30.891 c 0,0 0.946,5.372 -7.587,9.54 0,0 6.383,0.508 8.215,6.446 0.063,0.255 3.54,-12.827 -0.628,-15.986 z"
           id="path3835" />
        <path
           style="fill:#f4cc90"
           inkscape:connector-curvature="0"
           d="m 30.005,24.633 a 7.9,7.9 0 1 1 -7.772,7.9 7.838,7.838 0 0 1 7.772,-7.9 z"
           id="path3837" />
        <path
           style="fill:#ffd997"
           inkscape:connector-curvature="0"
           d="m 22.346,20.487 c 0.357,1.781 -0.255,3.408 -1.372,3.632 -1.117,0.224 -2.309,-1.039 -2.663,-2.819 -0.354,-1.78 0.255,-3.409 1.37,-3.632 1.115,-0.223 2.307,1.032 2.665,2.819 z"
           id="path3839" />
        <path
           style="fill:#ffd997"
           inkscape:connector-curvature="0"
           d="m 37.655,20.487 c -0.361,1.781 0.254,3.408 1.368,3.632 1.114,0.224 2.309,-1.039 2.667,-2.819 0.358,-1.78 -0.256,-3.409 -1.371,-3.632 -1.115,-0.223 -2.31,1.032 -2.664,2.819 z"
           id="path3841" />
        <path
           style="fill:#ffd997"
           inkscape:connector-curvature="0"
           d="m 39.979,21.656 c 0,7.265 -5.193,13.156 -10.061,13.156 -4.868,0 -10.064,-5.891 -10.064,-13.156 0,-7.265 5.197,-13.156 10.064,-13.156 4.867,0 10.061,5.889 10.061,13.156 z"
           id="path3843" />
        <path
           style="fill:#414141"
           inkscape:connector-curvature="0"
           d="M 39.971,21.228 A 18.676,18.676 0 0 0 40.964,18.9 C 43.928,10.373 40.444,6.005 36.075,5.843 L 36.057,5.852 A 8.179,8.179 0 0 0 28.433,2 10.678,10.678 0 0 0 17.947,13.334 21.466,21.466 0 0 0 19.858,21.3 c 0,0 -0.056,-5.622 2.854,-6.037 2.91,-0.415 10.662,0.412 12.376,-3.616 0,-0.003 4.986,2.446 4.883,9.581 z"
           id="path3845" />
      </g>
      <g
         transform="matrix(2.541735,0,0,2.3999985,-37.356185,-0.25975876)"
         id="user_female1"
         data-name="user female1">
        <path
           style="fill:#634738"
           inkscape:connector-curvature="0"
           d="M 35.084,4.038 C 27.64,-1.1 17.026,4.84 16.078,18.744 v 0 a 30.444,30.444 0 0 0 1.2,11.322 c 0.015,0.056 0.036,0.109 0.053,0.165 a 14.3,14.3 0 0 0 0.659,1.618 6.965,6.965 0 0 0 1.41,2.082 3.738,3.738 0 0 0 0.793,0.581 4.956,4.956 0 0 0 2.435,0.537 h 14.447 a 5.03,5.03 0 0 0 2.35,-0.492 3.757,3.757 0 0 0 0.875,-0.626 6.982,6.982 0 0 0 1.416,-2.082 13.593,13.593 0 0 0 0.659,-1.618 c 0.02,-0.056 0.038,-0.109 0.054,-0.17 a 22.751,22.751 0 0 0 0.829,-3.487 C 45.611,13.416 42.393,4.526 35.084,4.038 Z"
           id="path3866" />
        <path
           style="fill:#f4cc90"
           inkscape:connector-curvature="0"
           d="m 30.045,16.68 c 2.88,0 5.29,9.236 5.29,15.944 0,6.708 -2.335,12.146 -5.217,12.146 -2.882,0 -5.218,-5.438 -5.218,-12.146 0,-6.708 2.264,-15.944 5.145,-15.944 z"
           id="path3868" />
        <polygon
           style="fill:#f4cc90"
           points="24.986,34.849 35.249,34.849 37.797,35.956 35.253,51.442 23.35,51.442 22.297,35.956 "
           id="polygon3870" />
        <path
           style="fill:#ffd997"
           inkscape:connector-curvature="0"
           d="m 23.387,21.318 c 0.342,1.708 -0.246,3.268 -1.315,3.483 -1.069,0.215 -2.213,-1 -2.553,-2.7 -0.34,-1.7 0.246,-3.27 1.312,-3.483 1.066,-0.213 2.212,0.992 2.556,2.7 z"
           id="path3872" />
        <path
           style="fill:#ffd997"
           inkscape:connector-curvature="0"
           d="m 36.863,21.318 c -0.344,1.708 0.247,3.268 1.315,3.483 1.068,0.215 2.213,-1 2.554,-2.7 0.341,-1.7 -0.244,-3.27 -1.314,-3.483 -1.07,-0.213 -2.211,0.992 -2.555,2.7 z"
           id="path3874" />
        <path
           style="fill:#ffd997"
           inkscape:connector-curvature="0"
           d="M 30.045,35.049 C 25.38,35.049 20.4,29.4 20.4,22.44 a 14.574,14.574 0 0 1 0.426,-3.468 C 21.193,17.704 22.937,16.12 23.139,14.854 24,9.465 27.112,3.531 35.005,12.841 a 8.688,8.688 0 0 1 3.2,3.2 14.536,14.536 0 0 1 1.491,6.4 C 39.691,29.4 34.713,35.049 30.045,35.049 Z"
           id="path3876" />
        <path
           style="fill:#634738"
           inkscape:connector-curvature="0"
           d="m 38.512,18.584 c 0,0 -0.8,-0.107 -1.918,-0.246 v 0 l -0.431,-1.983 -0.418,1.878 c -0.488,-0.056 -1.007,-0.118 -1.539,-0.176 l -0.834,-4.79 -0.586,4.63 c -0.87,-0.076 -2.222,-0.17 -2.741,-0.17 h -0.01 L 29.7,14.982 29.174,17.759 c -1.167,0.067 -2.811,0.24 -4.276,0.41 l -0.337,-4.644 -0.551,4.75 c -1.386,0.167 -2.436,0.309 -2.436,0.309 0,0 -1.347,-12.293 8.481,-10.661 0,0 10.099,-1.075 8.457,10.661 z"
           id="path3878" />
        <path
           style="fill:#16bb9d"
           inkscape:connector-curvature="0"
           d="M 50.2,44.1 C 47.952,38.362 36.831,35.524 36.831,35.524 h -0.017 c -0.325,3.861 -3.2,6.882 -6.7,6.882 -3.5,0 -6.387,-3.031 -6.7,-6.9 v 0 c 0,0 -11.37,2.854 -13.614,8.594 A 136.292,136.292 0 0 0 5.6,57.789 H 54.4 A 137.3,137.3 0 0 0 50.2,44.1 Z"
           id="path3880" />
      </g>
      <path
         inkscape:connector-curvature="0"
         d="m 106.19804,113.99023 c 0,0 15.98331,17.77056 19.17997,25.02966 h 13.74563 c 5.754,-17.35871 28.1306,-58.800225 47.31056,-73.31842 3.97389,-5.044494 -6.00912,-7.126751 -14.0653,-3.787356 -12.14185,5.032959 -35.04174,43.460246 -39.31891,52.707336 -6.07365,1.57807 -12.46698,-10.09961 -12.46698,-10.09961 z"
         style="fill:#00bb00;fill-opacity:1;fill-rule:evenodd;stroke:#000000;stroke-width:0.27580595;stroke-linecap:butt;stroke-linejoin:miter;stroke-miterlimit:4;stroke-dasharray:none;stroke-opacity:1"
         id="check" />
    </g>
  </g>
</svg>
